<svg xmlns="http://www.w3.org/2000/svg" version="1.1" xmlns:xlink="http://www.w3.org/1999/xlink" width="944" height="944"><svg width="944" height="944" viewBox="0 0 944 944" fill="none" xmlns="http://www.w3.org/2000/svg">
<path d="M435.333 62.7998C408.4 65.8665 375.333 71.4664 366.667 74.5331C364.8 75.1998 356.267 77.9998 347.6 80.6664C263.333 106.8 184.933 165.466 134.4 240C97.8667 294 78.4 344.666 67.0667 415.333C63.7333 436.266 63.7333 505.6 67.0667 528.533C72.2667 564.666 84.1333 607.066 97.2 636.666C114.8 676.4 139.6 715.733 162.8 740.533L167.733 745.733L169.2 737.866C178 691.333 195.333 660.666 229.733 630.533C267.333 597.6 303.467 577.733 418.667 526.666C487.2 496.266 522.533 476.266 541.2 457.2C556.8 441.333 559.2 426.8 548 414.933C543.6 410.266 545.733 409.066 555.867 410.133C565.867 411.2 571.867 414.666 577.733 422.8C589.333 438.8 583.733 459.2 561.867 480.8C547.333 495.2 532.8 506.266 494 532.266C434.667 572.133 405.067 596.133 382.267 622.533C356.667 652.266 343.6 679.733 338.667 714.266C335.867 734.133 337.733 765.733 342.8 786C345.467 796.666 355.067 820.266 361.2 831.733C370.933 849.466 389.6 874.666 393.2 874.666C393.6 874.666 399.467 875.6 406 876.533C428.267 880.133 467.867 882.933 484 882.133C550.8 878.533 607.6 863.866 660.667 836.133C682.533 824.8 688.667 820.933 709.2 806.266C735.6 787.466 768.267 757.333 784.667 736.666C787.6 732.933 790.4 729.733 790.8 729.333C791.2 728.933 794.933 724.133 798.933 718.666C833.333 671.733 858.267 617.6 870.133 563.333C890.667 469.6 878.4 366.933 837.333 287.333C826.267 266 821.333 257.466 810.8 242C758.8 165.2 686.4 110.133 600 81.7331C568.533 71.4664 550.4 67.7331 507.2 62.6664C493.067 61.0665 450.667 61.1998 435.333 62.7998ZM503.733 97.3331C534.267 100.666 554 104.266 578 111.333C599.867 117.733 616.4 124.266 641.333 136.666C712 171.733 773.733 235.066 808.267 308C822.933 338.933 830.8 362.666 837.2 394.4C841.467 415.6 845.067 446 843.6 447.6C843.067 448 841.6 447.333 840.267 445.866C834.667 439.6 817.333 420 795.867 395.333C783.2 380.666 770.133 366 767.2 362.666C764.133 359.333 757.333 351.6 752 345.333C746.667 339.066 740.4 331.866 738.133 329.333C735.867 326.8 724.133 313.2 712 299.333C699.867 285.333 689.467 273.333 688.667 272.533C688 271.733 682.267 265.2 676 257.866C648.8 226.4 624.133 198.4 612.533 185.733C602.4 174.933 598.8 171.866 593.733 170.133C586 167.466 582.133 167.466 574.4 170.133C569.067 171.866 562.267 178.266 527.067 213.733C469.6 271.866 407.333 335.066 389.067 353.866L373.6 369.733L367.733 366.4C345.867 353.733 332.533 347.2 326.4 346C323.067 345.333 318.933 345.866 314.133 347.333C307.067 349.6 303.333 353.066 207.867 449.466C153.6 504.4 108.533 549.333 108 549.333C106.533 549.333 104.533 539.866 101.733 518.533C98.5333 494.4 98.5333 444.933 101.733 421.333C105.733 392.533 109.467 376.4 118.533 349.333C126.267 326.533 138.133 300.266 149.2 282.133C152.267 277.066 154.667 272.8 154.667 272.666C154.667 272.4 158 267.2 162.267 261.066C194.4 213.733 233.067 177.6 284.4 146.8C294.533 140.666 305.6 135.2 329.467 124.266C338.933 120 367.067 110.933 384 106.8C398.533 103.2 416.933 99.9998 438 97.4664C451.6 95.8665 488.667 95.7331 503.733 97.3331ZM600.4 206.933C607.467 215.2 614.533 223.466 616.267 225.333C618 227.2 622.933 232.8 627.333 238C631.733 243.066 635.6 247.6 636 248C636.4 248.4 640.267 252.8 644.667 258C649.067 263.066 653.2 268 654 268.8C659.867 275.2 706.133 329.866 706.533 330.933C707.067 332.533 701.867 331.866 686 328C680.133 326.666 670.933 324.533 665.467 323.2L655.6 320.933L653.333 324C652 325.733 647.2 334 642.533 342.4L634.133 357.6L622.667 345.866C616.4 339.333 605.333 327.333 598.133 319.333C590.8 311.2 584.133 303.866 583.2 302.8C581.867 301.2 580.267 302 573.733 307.466C563.867 315.866 558.667 320.4 549.6 328.666C545.6 332.266 541.733 335.333 541.067 335.333C540 335.333 534 322.666 525.2 301.6C522.933 296.4 520.8 292 520.533 292C518.933 292 498.4 303.2 478 315.333C465.6 322.8 454.4 329.2 453.333 329.733C452.267 330.266 449.867 331.6 448 332.666C446.267 333.733 444.533 334.266 444.133 333.866C443.467 333.2 448 328.4 497.467 278C514.8 260.4 540.8 233.866 555.333 218.933C573.467 200.533 582.667 192 584.667 192C586.667 192 591.467 196.533 600.4 206.933ZM329.067 371.733C336.667 375.466 361.333 389.466 361.333 390C361.333 390.4 347.333 406.666 330.4 426.266C313.333 446 298 463.733 296.267 465.866C294.667 468 292.933 469.333 292.4 468.8C291.867 468.4 292.933 458.933 294.8 447.866C296.533 436.8 297.867 427.6 297.467 427.333C297.2 426.933 291.467 429.6 284.8 433.2C246.267 453.6 235.733 458.933 234.933 458.133C234.533 457.6 248.533 442.666 266.133 424.933C283.733 407.2 303.2 387.466 309.333 380.933C315.467 374.533 321.333 369.333 322.267 369.333C323.333 369.333 326.4 370.4 329.067 371.733Z" fill="#27245C"></path>
</svg><style>@media (prefers-color-scheme: light) { :root { filter: none; } }
@media (prefers-color-scheme: dark) { :root { filter: none; } }
</style></svg>