<svg xmlns="http://www.w3.org/2000/svg" width="968" height="140" fill="none"><path fill="#27245C" d="M55.024 9.287c-3.997.456-8.904 1.287-10.19 1.742-.278.099-1.544.514-2.83.91-12.506 3.878-24.14 12.585-31.64 23.646C4.942 43.599 2.053 51.118.37 61.605c-.495 3.107-.495 13.396 0 16.8.772 5.362 2.533 11.655 4.472 16.047 2.612 5.897 6.292 11.734 9.735 15.415l.732.771.218-1.167c1.306-6.906 3.879-11.457 8.984-15.929 5.58-4.887 10.942-7.836 28.038-15.414 10.171-4.512 15.415-7.48 18.185-10.31 2.315-2.354 2.671-4.511 1.01-6.272-.654-.693-.337-.87 1.167-.712 1.484.158 2.374.672 3.245 1.88 1.721 2.374.89 5.401-2.355 8.607-2.157 2.137-4.314 3.78-10.072 7.638-8.805 5.916-13.198 9.478-16.582 13.396-3.799 4.412-5.738 8.489-6.47 13.614-.416 2.948-.139 7.638.613 10.645.396 1.583 1.82 5.086 2.731 6.787 1.445 2.632 4.215 6.372 4.749 6.372.06 0 .93.138 1.9.277 3.304.534 9.18.95 11.575.831 9.914-.534 18.343-2.711 26.218-6.827 3.246-1.682 4.156-2.255 7.203-4.432 3.918-2.79 8.766-7.262 11.2-10.329.435-.554.851-1.029.91-1.088.059-.06.613-.772 1.207-1.583 5.105-6.966 8.805-15 10.567-23.053 3.047-13.91 1.226-29.147-4.868-40.96-1.643-3.166-2.375-4.432-3.938-6.727-7.717-11.398-18.462-19.57-31.284-23.785-4.67-1.523-7.36-2.077-13.772-2.83-2.097-.237-8.39-.217-10.665.02Zm10.15 5.125c4.532.495 7.46 1.03 11.022 2.078 3.246.95 5.7 1.92 9.4 3.76 10.487 5.204 19.648 14.603 24.773 25.426 2.177 4.591 3.344 8.113 4.294 12.823.633 3.146 1.167 7.657.95 7.895-.079.06-.297-.04-.495-.257-.831-.93-3.403-3.84-6.589-7.5-1.88-2.176-3.819-4.353-4.254-4.848a111.793 111.793 0 0 1-2.256-2.572c-.792-.93-1.722-1.999-2.058-2.375-.336-.375-2.078-2.394-3.878-4.452-1.801-2.077-3.344-3.858-3.463-3.977-.1-.119-.95-1.088-1.88-2.177-4.037-4.67-7.697-8.825-9.419-10.705-1.504-1.602-2.038-2.057-2.79-2.315-1.147-.396-1.721-.396-2.869 0-.791.258-1.8 1.207-7.025 6.47-8.528 8.628-17.769 18.007-20.48 20.797l-2.295 2.355-.87-.495c-3.245-1.88-5.224-2.85-6.134-3.027-.495-.1-1.109-.02-1.82.198-1.05.336-1.604.85-15.771 15.157-8.054 8.152-14.742 14.82-14.821 14.82-.218 0-.515-1.404-.93-4.57-.475-3.582-.475-10.923 0-14.425.593-4.274 1.147-6.669 2.493-10.686 1.148-3.383 2.909-7.281 4.551-9.972.455-.752.811-1.385.811-1.405 0-.04.495-.812 1.128-1.722 4.769-7.024 10.507-12.387 18.125-16.957 1.504-.91 3.147-1.722 6.689-3.345 1.404-.633 5.58-1.978 8.093-2.592 2.157-.534 4.887-1.009 8.014-1.385 2.018-.237 7.519-.257 9.755-.02Zm14.347 16.266c1.048 1.226 2.097 2.453 2.354 2.73.258.277.99 1.108 1.643 1.88.653.752 1.227 1.425 1.286 1.484.06.06.633.712 1.286 1.484.653.752 1.266 1.484 1.385 1.603.87.95 7.737 9.063 7.796 9.22.08.238-.692.14-3.047-.434a240.06 240.06 0 0 1-3.047-.713l-1.464-.336-.337.455c-.198.257-.91 1.484-1.603 2.73l-1.246 2.256-1.702-1.74c-.93-.97-2.572-2.751-3.64-3.939-1.09-1.207-2.078-2.295-2.217-2.453-.198-.238-.435-.119-1.405.692a119.469 119.469 0 0 0-3.581 3.146c-.594.535-1.168.99-1.267.99-.158 0-1.049-1.88-2.355-5.006-.336-.772-.653-1.425-.692-1.425-.238 0-3.285 1.662-6.312 3.463-1.84 1.108-3.503 2.058-3.66 2.137-.16.079-.515.277-.792.435-.258.158-.515.238-.574.178-.1-.099.574-.811 7.915-8.29 2.572-2.613 6.43-6.55 8.587-8.767 2.692-2.73 4.057-3.997 4.354-3.997.296 0 1.009.673 2.335 2.217ZM39.253 55.135c1.128.554 4.789 2.632 4.789 2.71 0 .06-2.078 2.474-4.59 5.383-2.534 2.928-4.81 5.56-5.066 5.877-.238.316-.495.514-.574.435-.08-.06.079-1.464.356-3.107.257-1.642.455-3.007.396-3.047-.04-.06-.89.336-1.88.87-5.719 3.028-7.282 3.82-7.4 3.701-.06-.08 2.018-2.295 4.63-4.927 2.611-2.632 5.5-5.56 6.41-6.53.91-.95 1.782-1.721 1.92-1.721.158 0 .614.158 1.01.356ZM167.32 38.04c.747 0 1.707.053 2.88.16 1.173.053 2.4.24 3.68.56a8.441 8.441 0 0 1 3.52 1.76c1.547 1.12 2.507 2.8 2.88 5.04.16.853.267 2.4.32 4.64.107 2.187.16 4.773.16 7.76s-.027 6.16-.08 9.52c0 3.36-.027 6.693-.08 10-.053 3.253-.107 6.267-.16 9.04-.053 2.72-.107 4.933-.16 6.64-.053 1.707-.107 2.693-.16 2.96a50.779 50.779 0 0 1-1.04 5.76c-.427 2.027-1.333 3.84-2.72 5.44-.907 1.013-2.107 1.893-3.6 2.64-1.44.747-3.28 1.253-5.52 1.52v-12c.053-3.52.08-7.44.08-11.76V38.04Zm56.48 8.08c.16.853.267 2.587.32 5.2.053 2.613.08 5.76.08 9.44 0 3.627-.027 7.547-.08 11.76-.053 4.16-.133 8.293-.24 12.4a616.805 616.805 0 0 1-.24 11.2 463.396 463.396 0 0 1-.32 8.32c-.107 2.133-.187 3.307-.24 3.52-.213.693-.613 1.307-1.2 1.84-.587.587-1.52 1.013-2.8 1.28-1.067.267-2.293.347-3.68.24-1.333-.053-2.48-.24-3.44-.56-.96-.32-1.44-.64-1.44-.96v-3.44c.053-2.08.08-4.827.08-8.24V38.04c.8 0 1.84.08 3.12.24 1.333.107 2.693.4 4.08.88a8.192 8.192 0 0 1 3.68 2.24 7.228 7.228 0 0 1 1.44 2.08c.427.747.72 1.627.88 2.64Zm-35.04-5.04c1.867-.053 3.813.16 5.84.64 2.08.427 3.84 1.12 5.28 2.08 1.493.96 2.24 2.213 2.24 3.76v4c0 2.027-.027 4.507-.08 7.44v9.28c0 3.253-.027 6.48-.08 9.68 0 3.2-.027 6.133-.08 8.8 0 2.667-.027 4.853-.08 6.56 0 1.707-.027 2.64-.08 2.8-.587.533-1.547.987-2.88 1.36-1.28.32-2.8.32-4.56 0-1.547-.267-2.827-.747-3.84-1.44-1.013-.747-1.573-1.547-1.68-2.4-.053-.48-.08-1.76-.08-3.84V50.92c.053-2.987.08-5.36.08-7.12v-2.72Zm117.52 11.04c-.8.107-2.213.213-4.24.32-1.973.053-4.347.133-7.12.24-.693 0-1.573.293-2.64.88-1.013.533-1.547 1.413-1.6 2.64-.053 1.173.293 2.187 1.04 3.04.8.853 1.84 1.28 3.12 1.28h13.36c.213.747.373 1.947.48 3.6.107 1.6.187 3.44.24 5.52.053 2.027.08 4.107.08 6.24 0 2.08-.027 4-.08 5.76 0 1.707-.027 3.04-.08 4-.053.8-.16 1.973-.32 3.52a52.694 52.694 0 0 1-.8 4.96 35.23 35.23 0 0 1-1.52 5.28c-.64 1.707-1.493 3.12-2.56 4.24-1.493 1.6-3.2 2.8-5.12 3.6-1.867.853-4.053 1.44-6.56 1.76-.907.107-2.4.213-4.48.32-2.027.107-4.347.16-6.96.16-2.613.053-5.28.053-8 0-2.72-.053-5.28-.133-7.68-.24-2.347-.107-4.267-.267-5.76-.48-.533-.107-1.547-.267-3.04-.48-1.493-.213-3.147-.667-4.96-1.36-1.76-.693-3.36-1.76-4.8-3.2-1.44-1.44-2.533-3.227-3.28-5.36a32.325 32.325 0 0 1-1.52-6.64c-.213-2.293-.32-4.32-.32-6.08V81.4c.053-1.76.08-3.68.08-5.76.053-2.08.107-4.133.16-6.16.053-2.027.107-3.84.16-5.44.107-1.6.213-2.773.32-3.52h13.28c1.12 0 2.107-.373 2.96-1.12.853-.747 1.28-1.867 1.28-3.36 0-.693-.267-1.28-.8-1.76a5.877 5.877 0 0 0-1.84-1.12c-.64-.267-1.173-.4-1.6-.4-4.267-.107-7.04-.24-8.32-.4-1.387-.213-2.773-.693-4.16-1.44s-2.507-1.893-3.36-3.44c-.853-1.6-1.173-3.733-.96-6.4h69.92c1.067.373 1.92 1.147 2.56 2.32.64 1.12.933 2.293.88 3.52-.053 1.173-.507 2.267-1.36 3.28-.853 1.013-2.213 1.653-4.08 1.92Zm-31.2 8.4c1.12 0 1.893-.373 2.32-1.12.48-.8.72-1.707.72-2.72 0-1.067-.24-1.947-.72-2.64-.48-.747-1.28-1.12-2.4-1.12-1.12 0-1.893.4-2.32 1.2-.427.8-.64 1.627-.64 2.48s.213 1.733.64 2.64c.48.853 1.28 1.28 2.4 1.28Zm13.04 37.04c1.333-.213 2.507-.507 3.52-.88 1.013-.427 2-1.147 2.96-2.16.373-.373.667-.747.88-1.12l.64-1.28c.107-.267.16-.613.16-1.04 0-.427-.08-.8-.24-1.12-.373-.693-1.067-.853-2.08-.48-1.28.48-2.773.907-4.48 1.28-1.653.32-3.253.373-4.8.16a8.45 8.45 0 0 1-3.84-1.76c-1.067-.907-1.733-2.347-2-4.32-.107-.853-.213-2.053-.32-3.6-.053-1.6-.107-3.147-.16-4.64v-3.04c-.053-.853-.347-1.573-.88-2.16-.533-.64-1.333-.88-2.4-.72-.693.107-1.333.427-1.92.96-.587.48-.88 1.227-.88 2.24.053 1.013.027 2.32-.08 3.92a86.97 86.97 0 0 1-.24 4.24c-.16 2.4-.667 4.453-1.52 6.16-.853 1.707-1.867 3.12-3.04 4.24-1.12 1.12-2.267 2.027-3.44 2.72-.747.48-.933 1.04-.56 1.68.373.587.773.88 1.2.88a268.2 268.2 0 0 0 4.24.16h11.36c1.867-.053 3.493-.107 4.88-.16 1.44-.053 2.453-.107 3.04-.16ZM293 71.4c-.213-.053-.64.053-1.28.32s-1.013.853-1.12 1.76c-.107.907-.133 1.76-.08 2.56.053.747.107 1.36.16 1.84.267 1.653.747 3.093 1.44 4.32.747 1.227 1.493 2.267 2.24 3.12.48.587 1.04.747 1.68.48.693-.267 1.067-.747 1.12-1.44a21.134 21.134 0 0 0 0-3.68 205.124 205.124 0 0 0-.24-4.32c-.107-1.707-.587-2.907-1.44-3.6-.8-.693-1.627-1.147-2.48-1.36Zm-37.44 21.92c.32.48.747.8 1.28.96.587.16 1.147.107 1.68-.16.533-.32.827-.88.88-1.68.053-.32.08-1.013.08-2.08.053-1.12.08-2.427.08-3.92v-4.4c0-1.493-.027-2.8-.08-3.92 0-1.173-.027-1.973-.08-2.4-.107-1.227-.347-2.16-.72-2.8-.32-.693-.827-.907-1.52-.64-.693.213-1.307.773-1.84 1.68a9.24 9.24 0 0 0-.96 2.72 39.505 39.505 0 0 0-.64 4.96 65.283 65.283 0 0 0 0 4.56c.107 1.333.293 2.587.56 3.76.32 1.173.747 2.293 1.28 3.36Zm131.52-10.88c-.48.853-.4 1.413.24 1.68.427.213.907.293 1.44.24l.8-.08c.427.427.853 1.013 1.28 1.76.48.693.667 1.413.56 2.16-.053.64-.373 1.253-.96 1.84-.533.533-1.493.987-2.88 1.36-.533.16-1.6.32-3.2.48-1.6.107-3.573.213-5.92.32-.693.053-1.227.24-1.6.56-.373.267-.187.613.56 1.04.373.213 1.2.613 2.48 1.2 1.28.533 2.667 1.12 4.16 1.76 1.493.64 2.773 1.2 3.84 1.68l1.68.64-.48 1.36c-.32.907-.773 1.947-1.36 3.12-.587 1.173-1.307 2.187-2.16 3.04-.533.533-1.093.907-1.68 1.12-.587.267-1.227.32-1.92.16-.533-.107-1.44-.427-2.72-.96a1831.54 1831.54 0 0 1-4.4-1.92c-1.653-.8-3.387-1.627-5.2-2.48l-5.12-2.56c-.533-.267-1.173-.32-1.92-.16-.747.107-1.12.693-1.12 1.76V105c.053.96.08 1.6.08 1.92v2c0 .533-.32.96-.96 1.28-.64.32-1.893.64-3.76.96-2.773.373-4.96.32-6.56-.16-1.547-.48-2.32-1.227-2.32-2.24v-7.44c0-.747-.293-1.173-.88-1.28-.587-.16-1.093-.107-1.52.16a67.479 67.479 0 0 1-6.96 4.4c-2.453 1.387-4.667 2.24-6.64 2.56-1.333.213-2.587.133-3.76-.24-1.12-.373-2.107-.853-2.96-1.44-.853-.587-1.52-1.12-2-1.6l-.72-.72 1.2-.72c.853-.533 1.893-1.173 3.12-1.92l3.84-2.4c1.28-.8 2.4-1.467 3.36-2 .96-.587 1.52-.933 1.68-1.04 1.067-.533 1.547-1.067 1.44-1.6-.107-.587-1.227-.907-3.36-.96a423.756 423.756 0 0 0-5.92-.24c-1.6-.107-2.667-.213-3.2-.32-2.027-.587-3.467-1.333-4.32-2.24-.853-.907-1.173-2.48-.96-4.72l.88-.08a19.62 19.62 0 0 0 1.36-.16 3.144 3.144 0 0 0 1.44-1.04c.373-.533.427-.933.16-1.2l-1.92-2.08.96-.32c.693-.213 1.52-.48 2.48-.8 1.013-.32 2-.64 2.96-.96a87.421 87.421 0 0 1 2.48-.88c1.227-.48 2-1.067 2.32-1.76.373-.747.267-1.2-.32-1.36l-5.68-1.52 1.28-.96c.907-.693 1.787-1.547 2.64-2.56.427-.48.4-.907-.08-1.28-.427-.427-1.04-.8-1.84-1.12-.8-.373-1.573-.667-2.32-.88-.747-.213-1.253-.347-1.52-.4-2.08-.533-3.573-1.467-4.48-2.8-.8-1.173-1.067-2.533-.8-4.08l.96-.56c.693-.427 1.04-1.04 1.04-1.84V44.6h24.72c1.067 0 1.707-.32 1.92-.96.267-.64.48-1.147.64-1.52a6.361 6.361 0 0 1 2.32-2.96c1.12-.8 2.507-1.2 4.16-1.2 1.813 0 3.253.373 4.32 1.12 1.067.747 1.867 1.813 2.4 3.2.16.427.427.933.8 1.52.373.533 1.12.8 2.24.8h23.84v12c0 .907.187 1.627.56 2.16.373.533.667.933.88 1.2.32.427.56.907.72 1.44.16.48.16.96 0 1.44-.107.427-.427.853-.96 1.28-.533.373-1.333.72-2.4 1.04-.213.053-.853.187-1.92.4a56.262 56.262 0 0 0-3.52.88c-1.333.32-2.587.72-3.76 1.2a78.53 78.53 0 0 0-3.36 1.52 341.983 341.983 0 0 1-3.76 1.68c-.853.373-1.333 1.013-1.44 1.92-.053.907.587 1.493 1.92 1.76.587.107 1.547.293 2.88.56 1.387.213 2.933.48 4.64.8 1.76.32 3.44.64 5.04.96 1.6.32 2.907.587 3.92.8l1.6.24-.8 1.44c-.48.907-1.12 1.947-1.92 3.12Zm-53.44-26.16c-.32.373-.4.827-.24 1.36.213.48.693.827 1.44 1.04 1.28.32 2.613.48 4 .48s2.56-.16 3.52-.48c1.653-.64 2.64-1.52 2.96-2.64.16-.64.08-1.147-.24-1.52-.32-.427-.773-.64-1.36-.64-1.28.053-2.4.08-3.36.08s-1.653.027-2.08.08c-1.12.053-2.027.293-2.72.72-.693.427-1.333.933-1.92 1.52Zm41.52 2.24c1.227-.107 1.92-.373 2.08-.8.16-.48 0-.987-.48-1.52a4.93 4.93 0 0 0-1.68-1.44c-.693-.427-1.253-.667-1.68-.72h-1.76a46.59 46.59 0 0 0-2.88-.08 59.607 59.607 0 0 0-2.96-.08h-1.84c-.853 0-1.68.373-2.48 1.12-.8.693-1.333 1.413-1.6 2.16-.053.213-.027.533.08.96.107.373.667.56 1.68.56 1.28.053 2.72.107 4.32.16 1.653 0 3.28-.027 4.88-.08a80.674 80.674 0 0 0 4.32-.24ZM350.92 70.6c1.28.213 2.613.133 4-.24 1.44-.427 2.533-.907 3.28-1.44.907-.693 1.12-1.307.64-1.84-.427-.533-1.227-.827-2.4-.88-1.333-.107-2.8-.16-4.4-.16-1.6 0-2.667.133-3.2.4-.96.48-1.493 1.04-1.6 1.68-.16 1.227 1.067 2.053 3.68 2.48Zm17.84 14.88c.907-.213 1.413-.613 1.52-1.2.16-.587-.053-1.013-.64-1.28a15.89 15.89 0 0 0-3.68-1.36c-1.28-.373-2.32-.56-3.12-.56-1.387 0-2.08.587-2.08 1.76 0 .533.107 1.093.32 1.68.213.533.827.853 1.84.96 1.067.107 2.08.187 3.04.24 1.013 0 1.947-.08 2.8-.24Zm-20.88-2.24c0-.427-.187-.827-.56-1.2-.32-.373-.853-.507-1.6-.4-.693.053-1.707.267-3.04.64-1.28.32-2.293.613-3.04.88-.853.32-1.253.693-1.2 1.12.107.373.373.64.8.8.32.107.907.24 1.76.4.907.107 1.813.187 2.72.24.96 0 1.68-.053 2.16-.16.747-.213 1.28-.427 1.6-.64.32-.213.453-.773.4-1.68Zm120.4-32.48v9.92c.053 2.987.08 6.293.08 9.92v10.96c0 3.68-.027 7.12-.08 10.32 0 3.147-.027 5.787-.08 7.92-.053 2.08-.107 3.333-.16 3.76-.32 1.92-.987 3.493-2 4.72-1.013 1.227-2.187 2.08-3.52 2.56-2.133.8-4.267.613-6.4-.56-1.867-1.173-3.333-2.267-4.4-3.28l-1.6-1.52.88-.72c.64-.48 1.333-1.147 2.08-2 .8-.853 1.44-1.84 1.92-2.96.16-.32.293-.987.4-2 .16-1.067.267-2.24.32-3.52.107-1.28.053-2.373-.16-3.28-.053-.587-.453-1.013-1.2-1.28-.693-.32-1.333-.267-1.92.16-1.28.96-2.667 1.6-4.16 1.92-1.44.32-2.72-.267-3.84-1.76-.587-.853-1.52-2.347-2.8-4.48a2477.158 2477.158 0 0 0-3.92-6.96c-.32-.587-.773-.933-1.36-1.04-.587-.107-1.227.213-1.92.96-.693.693-1.36 2.027-2 4-.64 1.92-1.467 3.547-2.48 4.88-1.013 1.28-2.133 2.293-3.36 3.04-1.973 1.227-4 1.867-6.08 1.92-2.08.053-3.653-.267-4.72-.96l.4-1.52c.32-1.013.72-2.32 1.2-3.92a163.83 163.83 0 0 0 1.6-5.28 147.71 147.71 0 0 0 1.6-5.44c.533-1.76.987-3.253 1.36-4.48.373-1.28.587-2.08.64-2.4.32-1.387.08-2.56-.72-3.52-.747-1.013-1.76-1.333-3.04-.96-.96.213-1.76.693-2.4 1.44-.587.693-.96 1.68-1.12 2.96-.053.32-.107 1.227-.16 2.72 0 1.493-.027 3.413-.08 5.76 0 2.293-.027 4.773-.08 7.44 0 2.667-.027 5.333-.08 8-.053 2.667-.107 5.147-.16 7.44-.053 2.24-.107 4.08-.16 5.52-.053 1.44-.107 2.267-.16 2.48-.213.693-.64 1.333-1.28 1.92-.64.64-1.627 1.12-2.96 1.44-1.173.267-2.4.4-3.68.4-1.28.053-2.373-.027-3.28-.24-.907-.213-1.413-.507-1.52-.88 0-.107-.027-1.04-.08-2.8v-6.88c0-2.88-.027-6.08-.08-9.6V50.76h18.96c1.28 0 2.507-.24 3.68-.72 1.173-.533 2.187-1.147 3.04-1.84.907-.747 1.493-1.413 1.76-2 .213-.427.453-1.147.72-2.16.32-1.013.613-2.08.88-3.2l.8-2.8.32-1.2 1.52.24c1.067.107 2.293.32 3.68.64 1.44.267 2.72.693 3.84 1.28.8.373 1.44.827 1.92 1.36.533.533.773 1.173.72 1.92-.053.533-.16 1.2-.32 2l-.56 2.8c-.107.853.16 1.68.8 2.48.693.8 1.84 1.2 3.44 1.2h21.52Zm-21.12 12.4c-.64.213-1.173.8-1.6 1.76-.427.907-.48 1.787-.16 2.64.213.427.72 1.28 1.52 2.56s1.733 2.72 2.8 4.32c1.067 1.6 2.053 3.093 2.96 4.48.8 1.173 1.44 1.52 1.92 1.04.48-.533.773-1.227.88-2.08.16-1.227.213-2.853.16-4.88-.053-2.08-.133-3.947-.24-5.6-.053-.853-.4-1.573-1.04-2.16a7.357 7.357 0 0 0-2.08-1.36c-.693-.373-1.28-.587-1.76-.64a15.873 15.873 0 0 0-1.68-.24c-.533-.107-1.093-.053-1.68.16Zm68.8-13.28c.907 1.067 1.867 1.813 2.88 2.24 1.013.427 2.027.693 3.04.8.48.053 1.387.213 2.72.48 1.387.213 2.88.48 4.48.8 1.6.32 3.093.64 4.48.96 1.387.32 2.347.587 2.88.8 1.653.587 2.88 1.413 3.68 2.48.853 1.067 1.413 2.24 1.68 3.52.32 1.227.453 2.4.4 3.52-.053 1.067-.16 1.92-.32 2.56-.32 1.227-.933 2.613-1.84 4.16-.907 1.493-2 3.013-3.28 4.56a49.385 49.385 0 0 1-4 4.16c-1.333 1.227-2.613 2.24-3.84 3.04-1.173.747-2.133 1.093-2.88 1.04-1.28-.053-2.613-.507-4-1.36-1.333-.853-2.32-2.08-2.96-3.68-.64-1.6-.587-3.547.16-5.84 1.28-.107 2.187-.453 2.72-1.04.587-.64.933-1.36 1.04-2.16.16-.8.133-1.547-.08-2.24-.16-.747-.373-1.253-.64-1.52-.373-.427-1.093-.827-2.16-1.2-1.013-.373-2.48-.533-4.4-.48-.693.053-1.707.267-3.04.64-1.28.32-2.267.827-2.96 1.52-.693.693-1.333 1.573-1.92 2.64-.533 1.013-.933 2.24-1.2 3.68-.267 1.493-.4 2.8-.4 3.92.053 1.067.133 2.213.24 3.44.213 2.187.613 3.973 1.2 5.36.587 1.333 1.92 2.613 4 3.84.96.533 2.293 1.093 4 1.68 1.76.533 3.573.933 5.44 1.2 1.867.267 3.547.24 5.04-.08 1.547-.32 2.64-1.04 3.28-2.16 1.707.853 2.96 1.84 3.76 2.96.853 1.12 1.413 2.24 1.68 3.36.267 1.067.347 2.027.24 2.88-.053.853-.133 1.44-.24 1.76-.32.853-.747 1.573-1.28 2.16-.48.533-1.28.96-2.4 1.28-1.067.32-2.667.587-4.8.8-1.12.107-2.667.133-4.64.08-1.973 0-4.107-.133-6.4-.4-2.24-.267-4.4-.72-6.48-1.36-1.12-.373-2.453-.933-4-1.68a31.846 31.846 0 0 1-4.48-2.64c-1.44-1.013-2.56-2.107-3.36-3.28-1.173-1.76-2.16-4.107-2.96-7.04-.747-2.933-1.147-6.56-1.2-10.88 0-.747.08-1.76.24-3.04.16-1.28.16-2.4 0-3.36s-.293-1.52-.4-1.68c-.053-.213-.347-.667-.88-1.36-.533-.747-1.093-1.867-1.68-3.36-.533-1.493-.88-2.773-1.04-3.84a17.423 17.423 0 0 1-.08-4.4c.16-1.44.32-2.587.48-3.44.213.053.853.08 1.92.08 1.12-.053 2.32-.133 3.6-.24 1.28-.16 2.293-.373 3.04-.64 1.44-.64 2.453-1.387 3.04-2.24.64-.907 1.013-1.76 1.12-2.56.16-.8.213-1.333.16-1.6a14.982 14.982 0 0 0-.16-1.04c0-.32-.08-.773-.24-1.36 2.667-.32 4.987-.133 6.96.56 2.027.693 3.627 1.493 4.8 2.4 1.227.853 1.973 1.467 2.24 1.84Zm73.36 21.6c-1.973-.213-3.627-.853-4.96-1.92a11.728 11.728 0 0 1-2.96-3.92 12.59 12.59 0 0 1-1.04-4.56c-.053-1.547.16-2.88.64-4a25.265 25.265 0 0 1 2.64-4.4c1.067-1.493 2.48-2.613 4.24-3.36 1.813-.8 4.133-.933 6.96-.4 2.187.427 3.867 1.12 5.04 2.08s1.973 2.053 2.4 3.28a8.443 8.443 0 0 1 .64 3.6c0 1.227-.133 2.347-.4 3.36a76.965 76.965 0 0 1-.64 2.32c-.213.693-.613 1.52-1.2 2.48s-1.387 1.893-2.4 2.8c-1.013.907-2.267 1.627-3.76 2.16-1.44.533-3.173.693-5.2.48Zm36.4 6c.32.853.48 2 .48 3.44.053 1.44-.187 2.933-.72 4.48-.533 1.493-1.52 2.853-2.96 4.08-.533-.48-1.467-.667-2.8-.56-1.28.107-2.533.32-3.76.64-1.173.32-1.973.587-2.4.8-.213.107-1.013.48-2.4 1.12-1.387.64-3.173 1.44-5.36 2.4l-6.96 2.96a214.347 214.347 0 0 1-7.36 3.04c-2.4.96-4.56 1.787-6.48 2.48-1.92.693-3.36 1.147-4.32 1.36-1.227.213-2.4.347-3.52.4a6.171 6.171 0 0 1-3.04-.8c-1.28-.747-2.587-2.32-3.92-4.72-1.333-2.4-2.427-5.547-3.28-9.44 1.44-.053 3.52-.32 6.24-.8 2.72-.533 5.893-1.333 9.52-2.4 3.68-1.067 7.547-2.453 11.6-4.16 4.373-1.867 8.213-3.413 11.52-4.64 3.307-1.28 5.787-2.427 7.44-3.44 1.387-.907 2.747-1.333 4.08-1.28 1.387 0 2.667.293 3.84.88s2.16 1.28 2.96 2.08c.8.747 1.333 1.44 1.6 2.08Zm74.8-14.96c.8 1.813 1.093 3.493.88 5.04a23.718 23.718 0 0 1-.96 4.16c-.107.373-.56 1.28-1.36 2.72a141.252 141.252 0 0 1-2.88 5.04c-1.12 1.973-2.32 4.08-3.6 6.32a982.51 982.51 0 0 0-3.76 6.48 220.471 220.471 0 0 0-3.12 5.44c-.853 1.493-1.307 2.8-1.36 3.92-.053 1.067.107 1.787.48 2.16-.267.427-.8 1.013-1.6 1.76-.8.8-1.76 1.6-2.88 2.4a18.23 18.23 0 0 1-3.6 2c-1.227.533-2.427.773-3.6.72-.427-.053-1.093-.24-2-.56-.853-.32-1.707-.853-2.56-1.6-.853-.747-1.493-1.76-1.92-3.04-.32-1.067-.427-2.293-.32-3.68.107-1.387.533-2.987 1.28-4.8.8 0 1.6-.347 2.4-1.04.8-.693 1.573-1.547 2.32-2.56a18.454 18.454 0 0 0 1.84-3.04c.533-1.067.907-1.947 1.12-2.64.373-1.387.453-2.4.24-3.04-.16-.64-.533-1.28-1.12-1.92-.213-.267-.693-.747-1.44-1.44a91.47 91.47 0 0 0-2.32-2.08c-.8-.693-1.413-1.2-1.84-1.52-.693-.48-1.52-1.04-2.48-1.68-.96-.693-1.733-1.067-2.32-1.12-.64-.053-1.093.08-1.36.4-.267.267-.56.64-.88 1.12-.107.16-.373.533-.8 1.12-.373.533-.8 1.12-1.28 1.76-.427.64-.773 1.147-1.04 1.52-.373.533-.56.96-.56 1.28 0 .267.08.507.24.72-.96.907-1.947 1.44-2.96 1.6a5.228 5.228 0 0 1-2.72-.4c-.853-.373-1.573-.8-2.16-1.28a13.39 13.39 0 0 1-1.6-1.36 7.476 7.476 0 0 1-1.28-1.76c-.693-1.44-.853-2.907-.48-4.4.373-1.547.747-2.747 1.12-3.6.16-.373.48-1.067.96-2.08.48-1.067 1.04-2.293 1.68-3.68.693-1.44 1.36-2.853 2-4.24.693-1.44 1.307-2.72 1.84-3.84.533-1.12.907-1.893 1.12-2.32a53.961 53.961 0 0 0 2.56-6.16c.747-2.08 1.307-3.92 1.68-5.52.373-1.653.507-2.853.4-3.6 2.56.107 4.667.48 6.32 1.12 1.707.587 3.067 1.307 4.08 2.16 1.067.8 1.947 1.6 2.64 2.4.693.8 1.36 1.467 2 2 .853.693 2.16 1.44 3.92 2.24 1.76.747 3.6 1.467 5.52 2.16a153.92 153.92 0 0 1 5.2 1.92 22.458 22.458 0 0 1 6.24 3.52c1.92 1.44 3.28 3.04 4.08 4.8Zm-15.84 10.64c.533-.16.987-.587 1.36-1.28a7.96 7.96 0 0 0 .8-2.32c.213-.907.293-1.627.24-2.16-.053-.8-.373-1.44-.96-1.92-.587-.533-1.12-.96-1.6-1.28a32.13 32.13 0 0 0-1.84-1.12c-.747-.48-1.413-.827-2-1.04-1.44-.533-2.853-.827-4.24-.88-1.333-.053-2.747.187-4.24.72-.373.16-.987.48-1.84.96-.8.48-1.12 1.093-.96 1.84.107.587.373 1.04.8 1.36.427.267.907.56 1.44.88.267.16.827.507 1.68 1.04.853.48 1.84 1.04 2.96 1.68 1.12.64 2.16 1.227 3.12 1.76l2.16 1.2c.747.373 1.36.587 1.84.64.533 0 .96-.027 1.28-.08ZM731 77.72c-.587-.693-1.227-1.68-1.92-2.96-.64-1.333-1.12-2.827-1.44-4.48a15.49 15.49 0 0 1 .08-5.2c.587.213 1.627.533 3.12.96 1.493.373 3.147.747 4.96 1.12 1.813.373 3.44.613 4.88.72.32 0 1.147.027 2.48.08h22.48a94.503 94.503 0 0 1 2.64-.08c.853-.107 1.6-.187 2.24-.24.693-.107 1.307-.453 1.84-1.04 1.333.053 2.533.267 3.6.64 1.12.32 2.24.693 3.36 1.12 1.547.587 2.72 1.387 3.52 2.4.8.96 1.333 1.893 1.6 2.8.32.853.48 1.413.48 1.68-.053 2.4-.88 4.08-2.48 5.04-1.547.907-3.76 1.493-6.64 1.76-.427.053-1.44.08-3.04.08H747.88c-1.76-.053-3.573-.133-5.44-.24-1.867-.16-3.413-.347-4.64-.56-1.76-.373-3.12-.8-4.08-1.28-.907-.533-1.813-1.307-2.72-2.32Zm86.16 1.76c0 3.573.507 6.987 1.52 10.24a43.781 43.781 0 0 0 4 9.12c1.653 2.773 3.467 5.227 5.44 7.36 2.027 2.133 4 3.893 5.92 5.28-.693 1.867-1.76 3.013-3.2 3.44-.8.267-1.813.4-3.04.4s-2.507-.16-3.84-.48c-1.28-.32-2.427-.773-3.44-1.36-2.133-1.227-4.32-2.853-6.56-4.88-2.24-2.027-4.293-4.48-6.16-7.36s-3.333-6.213-4.4-10c-1.067-3.787-1.52-8.08-1.36-12.88.16-3.893.853-7.52 2.08-10.88 1.28-3.413 2.88-6.533 4.8-9.36 1.92-2.88 3.973-5.44 6.16-7.68 2.24-2.24 4.4-4.107 6.48-5.6 2.08-1.547 3.893-2.667 5.44-3.36l6.48 5.52c-1.92 1.387-3.867 3.2-5.84 5.44-1.92 2.187-3.68 4.693-5.28 7.52-1.547 2.827-2.8 5.893-3.76 9.2-.96 3.307-1.44 6.747-1.44 10.32ZM906.934 93c.32.32.853.88 1.6 1.68l2.64 2.64 2.8 2.8a118.5 118.5 0 0 1 3.2 3.12c-.214 1.333-.774 2.64-1.68 3.92-.907 1.28-2 2.267-3.28 2.96-1.28.693-2.667.853-4.16.48-.694-.213-1.547-.667-2.56-1.36a21.453 21.453 0 0 1-2.8-2.24 49.54 49.54 0 0 1-2.24-2.08c-.534-.64-1.04-.907-1.52-.8-.427.053-.8.267-1.12.64-.267.373-.48.72-.64 1.04-.694 1.227-1.707 2.4-3.04 3.52a8.424 8.424 0 0 1-4.48 2.16c-1.067.107-2.214 0-3.44-.32-1.227-.32-2.48-.987-3.76-2l.56-1.12c.426-.693.906-1.573 1.44-2.64.586-1.067 1.2-2.16 1.84-3.28a98.685 98.685 0 0 0 1.6-3.04c.48-.907.8-1.493.96-1.76.426-.747.64-1.627.64-2.64 0-1.013-.187-1.84-.56-2.48-.48-.907-1.04-1.68-1.68-2.32-.587-.64-1.067-1.093-1.44-1.36-.854-.693-1.574-.8-2.16-.32-.587.48-.88 1.013-.88 1.6V101c0 1.76-.24 3.28-.72 4.56-.427 1.28-1.04 2.347-1.84 3.2-1.014 1.173-2.294 2-3.84 2.48-1.547.533-3.254.8-5.12.8V60.92c0-.533-.134-1.04-.4-1.52-.214-.48-.48-.773-.8-.88-.32-.107-.694.08-1.12.56-.374.427-.72 1.333-1.04 2.72-.214.907-.4 2.4-.56 4.48-.107 2.08-.187 4.507-.24 7.28a453.32 453.32 0 0 0-.08 8.8v17.36c.053 2.507.08 4.56.08 6.16.053 1.6.08 2.533.08 2.8 0 .907-.587 1.573-1.76 2-1.174.427-2.534.613-4.08.56-1.44-.053-2.72-.32-3.84-.8-1.067-.427-1.654-1.253-1.76-2.48V89.8c0-.587-.027-1.307-.08-2.16 0-.907-.16-1.653-.48-2.24-.32-.64-.934-.853-1.84-.64-1.867.427-3.414.453-4.64.08-1.227-.373-2.16-.933-2.8-1.68-.587-.747-.934-1.413-1.04-2 .746-1.333 1.626-3.2 2.64-5.6 1.066-2.453 2.16-5.2 3.28-8.24 1.12-3.04 2.213-6.133 3.28-9.28a301.512 301.512 0 0 0 3.04-8.96c.96-2.827 1.733-5.28 2.32-7.36.586-2.08.933-3.493 1.04-4.24l1.44.8c.96.533 2.053 1.12 3.28 1.76 1.226.587 2.186 1.04 2.88 1.36 1.066.373 1.866.4 2.4.08l.8-.56h42.8c1.173.693 1.946 1.68 2.32 2.96a7.204 7.204 0 0 1 .16 3.68c-.267 1.333-.907 2.533-1.92 3.6-1.014 1.013-2.32 1.52-3.92 1.52h-1.84c-1.174 0-2.667.027-4.48.08-1.76 0-3.574.027-5.44.08-1.814 0-3.387.027-4.72.08-1.334 0-2.107.027-2.32.08-3.467.427-5.867 1.36-7.2 2.8-1.334 1.387-1.974 3.147-1.92 5.28.106 1.013.586 1.867 1.44 2.56.853.64 2 .96 3.44.96h26.32v10.64l-1.04 1.84a1362.07 1362.07 0 0 0-2.56 4.72 3744.971 3744.971 0 0 1-3.6 6.64c-.214.373-.427 1.013-.64 1.92-.214.853.053 1.733.8 2.64Zm-14-13.44c.8 1.173 1.733 1.92 2.8 2.24 1.12.32 2.053.293 2.8-.08.693-.373 1.173-.773 1.44-1.2.266-.48.506-1.227.72-2.24.213-1.067.053-1.813-.48-2.24a4.965 4.965 0 0 0-1.76-1.04c-.374-.107-.907-.187-1.6-.24-.64-.053-1.44.107-2.4.48-.854.373-1.467 1.013-1.84 1.92-.32.853-.214 1.653.32 2.4Zm52.08-.08c0-3.573-.48-7.013-1.44-10.32-.96-3.307-2.24-6.373-3.84-9.2-1.547-2.827-3.307-5.333-5.28-7.52-1.92-2.24-3.84-4.053-5.76-5.44l6.48-5.52c1.546.693 3.36 1.813 5.44 3.36 2.08 1.493 4.213 3.36 6.4 5.6 2.24 2.24 4.32 4.8 6.24 7.68 1.92 2.827 3.493 5.947 4.72 9.36 1.28 3.36 2 6.987 2.16 10.88.16 4.8-.294 9.093-1.36 12.88-1.067 3.787-2.534 7.12-4.4 10-1.867 2.88-3.92 5.333-6.16 7.36s-4.427 3.653-6.56 4.88c-.96.587-2.107 1.04-3.44 1.36-1.28.32-2.56.48-3.84.48-1.227 0-2.24-.133-3.04-.4-1.44-.427-2.507-1.573-3.2-3.44 1.92-1.387 3.866-3.147 5.84-5.28 2.026-2.133 3.866-4.587 5.52-7.36a43.834 43.834 0 0 0 4-9.12c1.013-3.253 1.52-6.667 1.52-10.24Z"/></svg>